<mxfile host="app.diagrams.net" agent="Mozilla/5.0 (X11; Linux x86_64) AppleWebKit/537.36 (KHTML, like Gecko) Chrome/133.0.0.0 Safari/537.36" version="26.0.16">
  <diagram name="Page-1" id="kRN1GCZhQbIwX4v1lRji">
    <mxGraphModel dx="441" dy="754" grid="1" gridSize="10" guides="1" tooltips="1" connect="1" arrows="1" fold="1" page="1" pageScale="1" pageWidth="827" pageHeight="1169" math="0" shadow="0">
      <root>
        <mxCell id="0" />
        <mxCell id="1" parent="0" />
        <mxCell id="KvRJMwuLy58MNPit2Ykt-2" value="Child" style="shape=umlActor;verticalLabelPosition=bottom;verticalAlign=top;html=1;outlineConnect=0;" vertex="1" parent="1">
          <mxGeometry x="50" y="280" width="30" height="60" as="geometry" />
        </mxCell>
        <mxCell id="KvRJMwuLy58MNPit2Ykt-3" value="NAO Robot" style="shape=umlActor;verticalLabelPosition=bottom;verticalAlign=top;html=1;outlineConnect=0;" vertex="1" parent="1">
          <mxGeometry x="210" y="270" width="30" height="70" as="geometry" />
        </mxCell>
        <mxCell id="KvRJMwuLy58MNPit2Ykt-5" value="Cloud" style="ellipse;shape=cloud;whiteSpace=wrap;html=1;" vertex="1" parent="1">
          <mxGeometry x="250" y="100" width="150" height="100" as="geometry" />
        </mxCell>
        <mxCell id="KvRJMwuLy58MNPit2Ykt-6" value="" style="endArrow=classic;startArrow=classic;html=1;rounded=0;" edge="1" parent="1">
          <mxGeometry width="50" height="50" relative="1" as="geometry">
            <mxPoint x="90" y="304.5" as="sourcePoint" />
            <mxPoint x="210" y="304.5" as="targetPoint" />
          </mxGeometry>
        </mxCell>
        <mxCell id="KvRJMwuLy58MNPit2Ykt-7" value="Physical&lt;div&gt;Interaction&lt;/div&gt;" style="edgeLabel;html=1;align=center;verticalAlign=middle;resizable=0;points=[];" vertex="1" connectable="0" parent="KvRJMwuLy58MNPit2Ykt-6">
          <mxGeometry x="0.3714" y="-4" relative="1" as="geometry">
            <mxPoint x="-22" y="16" as="offset" />
          </mxGeometry>
        </mxCell>
        <mxCell id="KvRJMwuLy58MNPit2Ykt-9" value="Choregraphe" style="whiteSpace=wrap;html=1;aspect=fixed;" vertex="1" parent="1">
          <mxGeometry x="310" y="265" width="80" height="80" as="geometry" />
        </mxCell>
        <mxCell id="KvRJMwuLy58MNPit2Ykt-10" value="Parent/&lt;div&gt;Guardian&lt;/div&gt;" style="shape=umlActor;verticalLabelPosition=bottom;verticalAlign=top;html=1;outlineConnect=0;" vertex="1" parent="1">
          <mxGeometry x="30" y="135" width="30" height="60" as="geometry" />
        </mxCell>
        <mxCell id="KvRJMwuLy58MNPit2Ykt-13" value="Database" style="shape=cylinder3;whiteSpace=wrap;html=1;boundedLbl=1;backgroundOutline=1;size=15;" vertex="1" parent="1">
          <mxGeometry x="430" y="115" width="70" height="85" as="geometry" />
        </mxCell>
        <mxCell id="KvRJMwuLy58MNPit2Ykt-14" value="Web App" style="rounded=0;whiteSpace=wrap;html=1;" vertex="1" parent="1">
          <mxGeometry x="120" y="140" width="90" height="50" as="geometry" />
        </mxCell>
        <mxCell id="KvRJMwuLy58MNPit2Ykt-16" value="" style="endArrow=classic;startArrow=classic;html=1;rounded=0;entryX=0.14;entryY=0.63;entryDx=0;entryDy=0;entryPerimeter=0;exitX=1;exitY=0.5;exitDx=0;exitDy=0;" edge="1" parent="1" source="KvRJMwuLy58MNPit2Ykt-14" target="KvRJMwuLy58MNPit2Ykt-5">
          <mxGeometry width="50" height="50" relative="1" as="geometry">
            <mxPoint x="220" y="410" as="sourcePoint" />
            <mxPoint x="270" y="360" as="targetPoint" />
          </mxGeometry>
        </mxCell>
        <mxCell id="KvRJMwuLy58MNPit2Ykt-17" value="" style="endArrow=classic;startArrow=classic;html=1;rounded=0;entryX=0;entryY=0.5;entryDx=0;entryDy=0;entryPerimeter=0;exitX=0.875;exitY=0.5;exitDx=0;exitDy=0;exitPerimeter=0;" edge="1" parent="1" source="KvRJMwuLy58MNPit2Ykt-5" target="KvRJMwuLy58MNPit2Ykt-13">
          <mxGeometry width="50" height="50" relative="1" as="geometry">
            <mxPoint x="340" y="410" as="sourcePoint" />
            <mxPoint x="390" y="360" as="targetPoint" />
          </mxGeometry>
        </mxCell>
        <mxCell id="KvRJMwuLy58MNPit2Ykt-18" value="" style="endArrow=classic;html=1;rounded=0;exitX=0;exitY=0.5;exitDx=0;exitDy=0;" edge="1" parent="1" source="KvRJMwuLy58MNPit2Ykt-9" target="KvRJMwuLy58MNPit2Ykt-3">
          <mxGeometry width="50" height="50" relative="1" as="geometry">
            <mxPoint x="340" y="410" as="sourcePoint" />
            <mxPoint x="390" y="360" as="targetPoint" />
          </mxGeometry>
        </mxCell>
        <mxCell id="KvRJMwuLy58MNPit2Ykt-20" value="" style="endArrow=classic;startArrow=classic;html=1;rounded=0;" edge="1" parent="1">
          <mxGeometry width="50" height="50" relative="1" as="geometry">
            <mxPoint x="250" y="250" as="sourcePoint" />
            <mxPoint x="300" y="200" as="targetPoint" />
          </mxGeometry>
        </mxCell>
        <mxCell id="KvRJMwuLy58MNPit2Ykt-21" value="" style="endArrow=classic;startArrow=classic;html=1;rounded=0;entryX=0;entryY=0.5;entryDx=0;entryDy=0;" edge="1" parent="1" target="KvRJMwuLy58MNPit2Ykt-14">
          <mxGeometry width="50" height="50" relative="1" as="geometry">
            <mxPoint x="70" y="160" as="sourcePoint" />
            <mxPoint x="210" y="360" as="targetPoint" />
          </mxGeometry>
        </mxCell>
      </root>
    </mxGraphModel>
  </diagram>
</mxfile>
